<svg width="48" height="48" viewBox="0 0 48 48" fill="none" xmlns="http://www.w3.org/2000/svg">
<circle cx="24" cy="24" r="24" fill="white"/>
<path d="M23.5003 9.33331C25.5225 9.33331 27.2503 10.0389 28.6836 11.45C30.1169 12.8611 30.8336 14.5778 30.8336 16.6C30.8336 17.7555 30.5836 18.8444 30.0836 19.8666C29.5836 20.8889 28.878 21.7555 27.9669 22.4666H26.8336V20.8C27.478 20.2889 27.9725 19.6666 28.3169 18.9333C28.6614 18.2 28.8336 17.4222 28.8336 16.6C28.8336 15.1333 28.3114 13.8889 27.2669 12.8666C26.2225 11.8444 24.9669 11.3333 23.5003 11.3333C22.0336 11.3333 20.778 11.8444 19.7336 12.8666C18.6891 13.8889 18.1669 15.1333 18.1669 16.6C18.1669 17.4222 18.3391 18.2 18.6836 18.9333C19.028 19.6666 19.5225 20.2889 20.1669 20.8V23.2C18.9225 22.5555 17.9447 21.6444 17.2336 20.4666C16.5225 19.2889 16.1669 18 16.1669 16.6C16.1669 14.5778 16.8836 12.8611 18.3169 11.45C19.7503 10.0389 21.478 9.33331 23.5003 9.33331ZM22.2336 37.3333C21.8558 37.3333 21.5003 37.2611 21.1669 37.1166C20.8336 36.9722 20.5447 36.7778 20.3003 36.5333L13.4336 29.6666L15.3003 27.7333C15.6114 27.4222 15.9614 27.1833 16.3503 27.0166C16.7391 26.85 17.1447 26.8222 17.5669 26.9333L20.1669 27.5333V16.6666C20.1669 15.7333 20.4891 14.9444 21.1336 14.3C21.778 13.6555 22.5669 13.3333 23.5003 13.3333C24.4336 13.3333 25.2225 13.6555 25.8669 14.3C26.5114 14.9444 26.8336 15.7333 26.8336 16.6666V22.4H27.7003C27.8114 22.4 27.9114 22.4222 28.0003 22.4666C28.0891 22.5111 28.1891 22.5555 28.3003 22.6L33.2336 25C33.7669 25.2444 34.1614 25.6389 34.4169 26.1833C34.6725 26.7278 34.7447 27.2889 34.6336 27.8666L33.4336 35.1333C33.3225 35.7778 33.0114 36.3055 32.5003 36.7166C31.9891 37.1278 31.4114 37.3333 30.7669 37.3333H22.2336ZM21.9669 35.3333H31.3336L32.7669 27.0333L26.6669 24H24.8336V16.6666C24.8336 16.2666 24.7114 15.9444 24.4669 15.7C24.2225 15.4555 23.9003 15.3333 23.5003 15.3333C23.1003 15.3333 22.778 15.4555 22.5336 15.7C22.2891 15.9444 22.1669 16.2666 22.1669 16.6666V29.9666L17.0336 28.8666L16.2669 29.6333L21.9669 35.3333ZM31.3336 35.3333H21.9669H31.3336Z" fill="#7EB101"/>
</svg>
