<svg width="12" height="12" viewBox="0 0 12 12" fill="none" xmlns="http://www.w3.org/2000/svg">
<path d="M6 4.28571V6.85713" stroke="#FF705D" stroke-width="0.857143" stroke-linecap="round" stroke-linejoin="round"/>
<path d="M6.00084 9.85714C6.23753 9.85714 6.42941 9.66526 6.42941 9.42857C6.42941 9.19188 6.23753 9 6.00084 9C5.76414 9 5.57227 9.19188 5.57227 9.42857C5.57227 9.66526 5.76414 9.85714 6.00084 9.85714Z" stroke="#FF705D" stroke-width="0.857143" stroke-linecap="round" stroke-linejoin="round"/>
<path d="M6.76333 0.899913C6.6914 0.759512 6.58212 0.641685 6.44752 0.559407C6.31292 0.47713 6.15823 0.433594 6.00048 0.433594C5.84272 0.433594 5.68803 0.47713 5.55343 0.559407C5.41883 0.641685 5.30955 0.759512 5.23762 0.899913L0.523333 10.3285C0.457581 10.459 0.426277 10.6041 0.432392 10.7501C0.438507 10.8961 0.481839 11.0381 0.558272 11.1626C0.634706 11.2871 0.741703 11.39 0.869104 11.4616C0.996504 11.5331 1.14008 11.5709 1.28619 11.5713H10.7148C10.8609 11.5709 11.0044 11.5331 11.1318 11.4616C11.2592 11.39 11.3662 11.2871 11.4427 11.1626C11.5191 11.0381 11.5624 10.8961 11.5686 10.7501C11.5747 10.6041 11.5434 10.459 11.4776 10.3285L6.76333 0.899913Z" stroke="#FF705D" stroke-width="0.857143" stroke-linecap="round" stroke-linejoin="round"/>
</svg>
