<svg width="100" height="16" viewBox="0 0 100 16" fill="none" xmlns="http://www.w3.org/2000/svg">
<g clip-path="url(#clip0_480_5207)">
<path d="M7.81974 0.51869C8.11607 -0.172898 9.12535 -0.172897 9.42168 0.518692L11.1706 4.60057C11.2956 4.89213 11.5781 5.09134 11.9023 5.11657L16.442 5.46986C17.2111 5.52972 17.523 6.46147 16.937 6.94875L13.4783 9.82474C13.2313 10.0302 13.1233 10.3526 13.1988 10.6597L14.2555 14.9599C14.4345 15.6885 13.618 16.2644 12.9595 15.874L9.07289 13.5695C8.79528 13.4049 8.44614 13.4049 8.16853 13.5695L4.2819 15.874C3.62338 16.2644 2.80686 15.6885 2.9859 14.9599L4.04261 10.6597C4.11809 10.3526 4.0102 10.0302 3.76316 9.82474L0.304365 6.94875C-0.281654 6.46147 0.030231 5.52972 0.799391 5.46986L5.33911 5.11657C5.66337 5.09134 5.94584 4.89213 6.07076 4.60057L7.81974 0.51869Z" fill="#FFE550"/>
<path d="M28.5092 0.51869C28.8055 -0.172898 29.8148 -0.172897 30.1111 0.518692L31.8601 4.60057C31.9851 4.89213 32.2675 5.09134 32.5918 5.11657L37.1314 5.46986C37.9006 5.52972 38.2125 6.46147 37.6265 6.94875L34.1677 9.82474C33.9207 10.0302 33.8128 10.3526 33.8882 10.6597L34.9449 14.9599C35.124 15.6885 34.3075 16.2644 33.649 15.874L29.7623 13.5695C29.4847 13.4049 29.1356 13.4049 28.858 13.5695L24.9713 15.874C24.3128 16.2644 23.4963 15.6885 23.6754 14.9599L24.7321 10.6597C24.8075 10.3526 24.6997 10.0302 24.4526 9.82474L20.9938 6.94875C20.4078 6.46147 20.7197 5.52972 21.4888 5.46986L26.0286 5.11657C26.3528 5.09134 26.6353 4.89213 26.7602 4.60057L28.5092 0.51869Z" fill="#FFE550"/>
<path d="M49.1991 0.51869C49.4955 -0.172898 50.5047 -0.172897 50.8011 0.518692L52.55 4.60057C52.675 4.89213 52.9575 5.09134 53.2817 5.11657L57.8214 5.46986C58.5905 5.52972 58.9024 6.46147 58.3164 6.94875L54.8577 9.82474C54.6106 10.0302 54.5027 10.3526 54.5782 10.6597L55.6349 14.9599C55.8139 15.6885 54.9974 16.2644 54.3389 15.874L50.4523 13.5695C50.1747 13.4049 49.8255 13.4049 49.5479 13.5695L45.6613 15.874C45.0028 16.2644 44.1863 15.6885 44.3653 14.9599L45.422 10.6597C45.4975 10.3526 45.3896 10.0302 45.1426 9.82474L41.6838 6.94875C41.0977 6.46147 41.4096 5.52972 42.1788 5.46986L46.7185 5.11657C47.0428 5.09134 47.3252 4.89213 47.4502 4.60057L49.1991 0.51869Z" fill="#FFE550"/>
<path d="M69.8886 0.51869C70.1849 -0.172898 71.1942 -0.172897 71.4905 0.518692L73.2395 4.60057C73.3645 4.89213 73.6469 5.09134 73.9712 5.11657L78.5108 5.46986C79.28 5.52972 79.5919 6.46147 79.0059 6.94875L75.5471 9.82474C75.3001 10.0302 75.1922 10.3526 75.2676 10.6597L76.3243 14.9599C76.5034 15.6885 75.6869 16.2644 75.0284 15.874L71.1417 13.5695C70.8641 13.4049 70.515 13.4049 70.2374 13.5695L66.3507 15.874C65.6922 16.2644 64.8757 15.6885 65.0547 14.9599L66.1115 10.6597C66.1869 10.3526 66.079 10.0302 65.832 9.82474L62.3732 6.94875C61.7872 6.46147 62.0991 5.52972 62.8682 5.46986L67.408 5.11657C67.7322 5.09134 68.0147 4.89213 68.1396 4.60057L69.8886 0.51869Z" fill="#FFE550"/>
<path d="M90.5785 0.51869C90.8749 -0.172898 91.8841 -0.172897 92.1805 0.518692L93.9294 4.60057C94.0544 4.89213 94.3369 5.09134 94.6611 5.11657L99.2008 5.46986C99.9699 5.52972 100.282 6.46147 99.6958 6.94876L96.2371 9.82474C95.99 10.0302 95.8821 10.3526 95.9576 10.6597L97.0143 14.9599C97.1933 15.6885 96.3768 16.2644 95.7183 15.874L91.8317 13.5695C91.5541 13.4049 91.2049 13.4049 90.9273 13.5695L87.0407 15.874C86.3822 16.2644 85.5657 15.6885 85.7447 14.9599L86.8014 10.6597C86.8769 10.3526 86.769 10.0302 86.5219 9.82474L83.0632 6.94876C82.4771 6.46147 82.789 5.52972 83.5582 5.46986L88.0979 5.11657C88.4222 5.09134 88.7046 4.89213 88.8295 4.60057L90.5785 0.51869Z" fill="#FFE550"/>
</g>
<defs>
<clipPath id="clip0_480_5207">
<rect width="100" height="16" fill="white"/>
</clipPath>
</defs>
</svg>
